<mxfile host="app.diagrams.net" agent="Mozilla/5.0 (Windows NT 10.0; Win64; x64) AppleWebKit/537.36 (KHTML, like Gecko) Chrome/130.0.0.0 Safari/537.36" version="24.8.4">
  <diagram id="C5RBs43oDa-KdzZeNtuy" name="Page-1">
    <mxGraphModel dx="1674" dy="746" grid="1" gridSize="10" guides="1" tooltips="1" connect="1" arrows="1" fold="1" page="1" pageScale="1" pageWidth="827" pageHeight="1169" math="0" shadow="0">
      <root>
        <mxCell id="WIyWlLk6GJQsqaUBKTNV-0" />
        <mxCell id="WIyWlLk6GJQsqaUBKTNV-1" parent="WIyWlLk6GJQsqaUBKTNV-0" />
        <mxCell id="kedEFX-Rhjgn2Nft4ruY-13" style="edgeStyle=orthogonalEdgeStyle;rounded=0;orthogonalLoop=1;jettySize=auto;html=1;" edge="1" parent="WIyWlLk6GJQsqaUBKTNV-1" source="kedEFX-Rhjgn2Nft4ruY-0" target="kedEFX-Rhjgn2Nft4ruY-1">
          <mxGeometry relative="1" as="geometry" />
        </mxCell>
        <mxCell id="kedEFX-Rhjgn2Nft4ruY-0" value="start" style="ellipse;whiteSpace=wrap;html=1;" vertex="1" parent="WIyWlLk6GJQsqaUBKTNV-1">
          <mxGeometry x="340" y="40" width="120" height="50" as="geometry" />
        </mxCell>
        <mxCell id="kedEFX-Rhjgn2Nft4ruY-14" style="edgeStyle=orthogonalEdgeStyle;rounded=0;orthogonalLoop=1;jettySize=auto;html=1;" edge="1" parent="WIyWlLk6GJQsqaUBKTNV-1" source="kedEFX-Rhjgn2Nft4ruY-1" target="kedEFX-Rhjgn2Nft4ruY-4">
          <mxGeometry relative="1" as="geometry" />
        </mxCell>
        <mxCell id="kedEFX-Rhjgn2Nft4ruY-1" value="calculate distance between the start and finish" style="rounded=1;whiteSpace=wrap;html=1;" vertex="1" parent="WIyWlLk6GJQsqaUBKTNV-1">
          <mxGeometry x="340" y="130" width="120" height="60" as="geometry" />
        </mxCell>
        <mxCell id="kedEFX-Rhjgn2Nft4ruY-15" style="edgeStyle=orthogonalEdgeStyle;rounded=0;orthogonalLoop=1;jettySize=auto;html=1;" edge="1" parent="WIyWlLk6GJQsqaUBKTNV-1" source="kedEFX-Rhjgn2Nft4ruY-4" target="kedEFX-Rhjgn2Nft4ruY-6">
          <mxGeometry relative="1" as="geometry" />
        </mxCell>
        <mxCell id="kedEFX-Rhjgn2Nft4ruY-4" value="calculate the length of the path between start and finish" style="rounded=1;whiteSpace=wrap;html=1;" vertex="1" parent="WIyWlLk6GJQsqaUBKTNV-1">
          <mxGeometry x="340" y="230" width="120" height="60" as="geometry" />
        </mxCell>
        <mxCell id="kedEFX-Rhjgn2Nft4ruY-17" style="edgeStyle=orthogonalEdgeStyle;rounded=0;orthogonalLoop=1;jettySize=auto;html=1;" edge="1" parent="WIyWlLk6GJQsqaUBKTNV-1" source="kedEFX-Rhjgn2Nft4ruY-5" target="kedEFX-Rhjgn2Nft4ruY-7">
          <mxGeometry relative="1" as="geometry" />
        </mxCell>
        <mxCell id="kedEFX-Rhjgn2Nft4ruY-5" value="calculate score for turn" style="rounded=1;whiteSpace=wrap;html=1;" vertex="1" parent="WIyWlLk6GJQsqaUBKTNV-1">
          <mxGeometry x="340" y="430" width="120" height="60" as="geometry" />
        </mxCell>
        <mxCell id="kedEFX-Rhjgn2Nft4ruY-16" style="edgeStyle=orthogonalEdgeStyle;rounded=0;orthogonalLoop=1;jettySize=auto;html=1;" edge="1" parent="WIyWlLk6GJQsqaUBKTNV-1" source="kedEFX-Rhjgn2Nft4ruY-6" target="kedEFX-Rhjgn2Nft4ruY-5">
          <mxGeometry relative="1" as="geometry" />
        </mxCell>
        <mxCell id="kedEFX-Rhjgn2Nft4ruY-6" value="add 1 to variable playerturn" style="rounded=1;whiteSpace=wrap;html=1;" vertex="1" parent="WIyWlLk6GJQsqaUBKTNV-1">
          <mxGeometry x="340" y="330" width="120" height="60" as="geometry" />
        </mxCell>
        <mxCell id="kedEFX-Rhjgn2Nft4ruY-10" style="edgeStyle=orthogonalEdgeStyle;rounded=0;orthogonalLoop=1;jettySize=auto;html=1;" edge="1" parent="WIyWlLk6GJQsqaUBKTNV-1" source="kedEFX-Rhjgn2Nft4ruY-7" target="kedEFX-Rhjgn2Nft4ruY-9">
          <mxGeometry relative="1" as="geometry" />
        </mxCell>
        <mxCell id="kedEFX-Rhjgn2Nft4ruY-20" style="edgeStyle=orthogonalEdgeStyle;rounded=0;orthogonalLoop=1;jettySize=auto;html=1;" edge="1" parent="WIyWlLk6GJQsqaUBKTNV-1" source="kedEFX-Rhjgn2Nft4ruY-7" target="kedEFX-Rhjgn2Nft4ruY-19">
          <mxGeometry relative="1" as="geometry" />
        </mxCell>
        <mxCell id="kedEFX-Rhjgn2Nft4ruY-7" value="is playerturn&amp;nbsp;&lt;div&gt;MOD = 1&lt;/div&gt;" style="rhombus;whiteSpace=wrap;html=1;" vertex="1" parent="WIyWlLk6GJQsqaUBKTNV-1">
          <mxGeometry x="345" y="529.5" width="110" height="110" as="geometry" />
        </mxCell>
        <mxCell id="kedEFX-Rhjgn2Nft4ruY-12" style="edgeStyle=orthogonalEdgeStyle;rounded=0;orthogonalLoop=1;jettySize=auto;html=1;" edge="1" parent="WIyWlLk6GJQsqaUBKTNV-1" source="kedEFX-Rhjgn2Nft4ruY-9">
          <mxGeometry relative="1" as="geometry">
            <mxPoint x="580" y="110" as="targetPoint" />
          </mxGeometry>
        </mxCell>
        <mxCell id="kedEFX-Rhjgn2Nft4ruY-9" value="add score to player1 score" style="rounded=1;whiteSpace=wrap;html=1;" vertex="1" parent="WIyWlLk6GJQsqaUBKTNV-1">
          <mxGeometry x="520" y="555" width="120" height="60" as="geometry" />
        </mxCell>
        <mxCell id="kedEFX-Rhjgn2Nft4ruY-11" value="yes" style="text;html=1;align=center;verticalAlign=middle;whiteSpace=wrap;rounded=0;" vertex="1" parent="WIyWlLk6GJQsqaUBKTNV-1">
          <mxGeometry x="450" y="560" width="60" height="30" as="geometry" />
        </mxCell>
        <mxCell id="kedEFX-Rhjgn2Nft4ruY-18" value="" style="endArrow=classic;html=1;rounded=0;" edge="1" parent="WIyWlLk6GJQsqaUBKTNV-1">
          <mxGeometry width="50" height="50" relative="1" as="geometry">
            <mxPoint x="580" y="110" as="sourcePoint" />
            <mxPoint x="400" y="110" as="targetPoint" />
          </mxGeometry>
        </mxCell>
        <mxCell id="kedEFX-Rhjgn2Nft4ruY-24" style="edgeStyle=orthogonalEdgeStyle;rounded=0;orthogonalLoop=1;jettySize=auto;html=1;entryX=0.5;entryY=0;entryDx=0;entryDy=0;" edge="1" parent="WIyWlLk6GJQsqaUBKTNV-1" source="kedEFX-Rhjgn2Nft4ruY-19" target="kedEFX-Rhjgn2Nft4ruY-21">
          <mxGeometry relative="1" as="geometry" />
        </mxCell>
        <mxCell id="kedEFX-Rhjgn2Nft4ruY-19" value="add score to player2 score" style="rounded=1;whiteSpace=wrap;html=1;" vertex="1" parent="WIyWlLk6GJQsqaUBKTNV-1">
          <mxGeometry x="340" y="680" width="120" height="60" as="geometry" />
        </mxCell>
        <mxCell id="kedEFX-Rhjgn2Nft4ruY-25" style="edgeStyle=orthogonalEdgeStyle;rounded=0;orthogonalLoop=1;jettySize=auto;html=1;" edge="1" parent="WIyWlLk6GJQsqaUBKTNV-1" source="kedEFX-Rhjgn2Nft4ruY-21" target="kedEFX-Rhjgn2Nft4ruY-22">
          <mxGeometry relative="1" as="geometry" />
        </mxCell>
        <mxCell id="kedEFX-Rhjgn2Nft4ruY-21" value="add 1 to round" style="rounded=1;whiteSpace=wrap;html=1;" vertex="1" parent="WIyWlLk6GJQsqaUBKTNV-1">
          <mxGeometry x="340" y="790" width="120" height="60" as="geometry" />
        </mxCell>
        <mxCell id="kedEFX-Rhjgn2Nft4ruY-26" style="edgeStyle=orthogonalEdgeStyle;rounded=0;orthogonalLoop=1;jettySize=auto;html=1;" edge="1" parent="WIyWlLk6GJQsqaUBKTNV-1" source="kedEFX-Rhjgn2Nft4ruY-22" target="kedEFX-Rhjgn2Nft4ruY-23">
          <mxGeometry relative="1" as="geometry" />
        </mxCell>
        <mxCell id="kedEFX-Rhjgn2Nft4ruY-30" style="edgeStyle=orthogonalEdgeStyle;rounded=0;orthogonalLoop=1;jettySize=auto;html=1;" edge="1" parent="WIyWlLk6GJQsqaUBKTNV-1" source="kedEFX-Rhjgn2Nft4ruY-22">
          <mxGeometry relative="1" as="geometry">
            <mxPoint x="720" y="955" as="targetPoint" />
          </mxGeometry>
        </mxCell>
        <mxCell id="kedEFX-Rhjgn2Nft4ruY-22" value="is round = 3" style="rhombus;whiteSpace=wrap;html=1;" vertex="1" parent="WIyWlLk6GJQsqaUBKTNV-1">
          <mxGeometry x="345" y="900" width="110" height="110" as="geometry" />
        </mxCell>
        <mxCell id="kedEFX-Rhjgn2Nft4ruY-33" style="edgeStyle=orthogonalEdgeStyle;rounded=0;orthogonalLoop=1;jettySize=auto;html=1;" edge="1" parent="WIyWlLk6GJQsqaUBKTNV-1" source="kedEFX-Rhjgn2Nft4ruY-23" target="kedEFX-Rhjgn2Nft4ruY-32">
          <mxGeometry relative="1" as="geometry" />
        </mxCell>
        <mxCell id="kedEFX-Rhjgn2Nft4ruY-23" value="display winner and total scores" style="rounded=1;whiteSpace=wrap;html=1;" vertex="1" parent="WIyWlLk6GJQsqaUBKTNV-1">
          <mxGeometry x="340" y="1050" width="120" height="60" as="geometry" />
        </mxCell>
        <mxCell id="kedEFX-Rhjgn2Nft4ruY-29" value="" style="endArrow=classic;html=1;rounded=0;" edge="1" parent="WIyWlLk6GJQsqaUBKTNV-1">
          <mxGeometry width="50" height="50" relative="1" as="geometry">
            <mxPoint x="720" y="110" as="sourcePoint" />
            <mxPoint x="490" y="110" as="targetPoint" />
          </mxGeometry>
        </mxCell>
        <mxCell id="kedEFX-Rhjgn2Nft4ruY-31" value="" style="endArrow=classic;html=1;rounded=0;" edge="1" parent="WIyWlLk6GJQsqaUBKTNV-1">
          <mxGeometry width="50" height="50" relative="1" as="geometry">
            <mxPoint x="720" y="950" as="sourcePoint" />
            <mxPoint x="720" y="110" as="targetPoint" />
          </mxGeometry>
        </mxCell>
        <mxCell id="kedEFX-Rhjgn2Nft4ruY-32" value="end" style="ellipse;whiteSpace=wrap;html=1;" vertex="1" parent="WIyWlLk6GJQsqaUBKTNV-1">
          <mxGeometry x="340" y="1160" width="120" height="50" as="geometry" />
        </mxCell>
      </root>
    </mxGraphModel>
  </diagram>
</mxfile>
